<svg width="215" height="215" viewBox="0 0 215 215" fill="none" xmlns="http://www.w3.org/2000/svg">
<path d="M143.5 117.422L108.5 91.371L73 117.581C73.493 123.629 77.211 135.418 80.3944 139.758C84.831 145.806 90.4789 159.415 106.5 158.911C121.479 158.911 131.669 146.027 136.106 139.897C139.289 135.499 143.007 123.552 143.5 117.422Z" fill="#F4D36C"/>
<path d="M104.17 168.534C103.655 167.556 102.626 158.759 103.14 158.27C103.655 157.781 110.345 157.781 110.86 158.27C111.374 158.759 110.345 167.556 109.83 168.534C109.316 169.511 107.257 170 106.743 170C106.228 170 104.684 169.511 104.17 168.534Z" fill="#64736C"/>
<path d="M137.5 138.246C137.224 138.524 127 151.855 125.5 151.351C124 150.847 89 151.351 88.5 151.351C88.0894 151.351 79 138.246 79 137.742C79 137.238 138 137.742 137.5 138.246Z" fill="#64736C"/>
<path d="M73 111.779C74 111.532 140.829 111.522 142.665 111.779C144.5 112.036 143 123.629 142 124.637C141 125.645 75.2728 124.637 74.4822 124.637C73.6917 124.637 72 112.026 73 111.779Z" fill="#5E7267"/>
<path d="M96.2929 60.5426L106.48 60.5426L119.709 60.8023C122.083 55.0788 127.748 43.9439 131.411 45.1927C135.99 46.7537 138.025 49.3553 136.499 52.9975C135.278 55.9113 127.849 61.1492 124.288 63.4039C126.662 66.6993 130.894 75.6835 126.823 85.2574C123.77 86.2872 115.527 88.3468 106.978 88.3468C98.43 88.3468 92.2221 86.6305 90.1868 85.7723C86.1161 76.2983 89.3387 66.3781 91.7133 63.1171C88.1514 60.8859 80.7224 55.7026 79.5012 52.8192C77.9747 49.215 80.01 46.6405 84.5896 45.0958C88.2532 43.8601 93.9183 54.8788 96.2929 60.5426Z" fill="#657373"/>
<path d="M110.574 86.6369C107.566 88.1879 108.025 88.7397 108.025 89.7912C108.025 91.3683 108.535 94.5226 109.554 96.0997C110.685 97.8494 125.357 111.871 129.945 115.025C134.533 118.18 137.082 118.705 142.179 119.757C146.895 120.73 150.336 120.808 155.433 120.283C161.013 119.707 166.648 111.345 167.668 108.191C168.616 105.257 167.668 93.9969 163.08 90.3169C158.492 86.6369 133.513 85.5854 131.984 85.5854C129.385 85.5854 114.652 84.534 110.574 86.6369Z" fill="#E6F1EB"/>
<path d="M119.415 89.1745C114.851 85.983 111.097 88.0554 109.729 89.0957C108.192 90.1346 110.215 92.254 112.242 93.8477C113.524 94.8557 129.497 103.977 142.734 106.188C155.972 108.399 163.61 109.512 165.151 107.948C166.693 106.383 165.094 103.127 165.094 103.127L139.234 97.2219C139.234 97.2219 124.701 92.8716 119.415 89.1745Z" fill="#BBD4D0"/>
<path d="M105.426 86.6369C108.434 88.1879 107.975 88.7397 107.975 89.7912C107.975 91.3683 107.465 94.5226 106.446 96.0997C105.315 97.8494 90.6428 111.871 86.055 115.025C81.4671 118.18 78.9182 118.705 73.8206 119.757C69.1048 120.73 65.6643 120.808 60.5666 120.283C54.987 119.707 49.3518 111.345 48.3322 108.191C47.3839 105.257 48.3322 93.9969 52.9201 90.3169C57.508 86.6369 82.4866 85.5854 84.0159 85.5854C86.6152 85.5854 101.348 84.534 105.426 86.6369Z" fill="#E6F1EB"/>
<path d="M96.5854 89.1745C101.149 85.983 104.903 88.0554 106.271 89.0957C107.808 90.1346 105.785 92.254 103.758 93.8477C102.476 94.8557 86.5031 103.977 73.2657 106.188C60.0283 108.399 52.3901 109.512 50.8488 107.948C49.3074 106.383 50.906 103.127 50.906 103.127L76.7655 97.2219C76.7655 97.2219 91.299 92.8716 96.5854 89.1745Z" fill="#BBD4D0"/>
<circle cx="107.5" cy="107.5" r="106.5" stroke="#F4D36C" stroke-width="2"/>
</svg>
